<?xml version="1.0" encoding="utf-8"?>
<!-- Generator: Adobe Illustrator 16.0.0, SVG Export Plug-In . SVG Version: 6.00 Build 0)  -->
<!DOCTYPE svg PUBLIC "-//W3C//DTD SVG 1.1//EN" "http://www.w3.org/Graphics/SVG/1.1/DTD/svg11.dtd">
<svg version="1.1" id="Calque_1" xmlns="http://www.w3.org/2000/svg" xmlns:xlink="http://www.w3.org/1999/xlink" x="0px" y="0px"
	 width="474.14px" height="464.481px" viewBox="0 0 474.14 464.481" enable-background="new 0 0 474.14 464.481"
	 xml:space="preserve">
<g opacity="0.1">
	<path fill="#FFFFFF" d="M78.264,402.666c-22.734-21.188-40.64-46.202-53.223-74.347c-12.15-27.177-18.844-56.107-19.895-85.985
		c-1.052-29.878,3.592-59.208,13.804-87.172c10.574-28.959,26.678-55.168,47.866-77.9c21.188-22.734,46.202-40.641,74.346-53.222
		c27.178-12.15,56.107-18.844,85.986-19.895c29.879-1.051,59.207,3.593,87.169,13.804c28.959,10.574,55.168,26.679,77.902,47.866
		c22.732,21.189,40.641,46.202,53.223,74.346c12.15,27.178,18.844,56.107,19.895,85.984c1.053,29.88-3.594,59.208-13.805,87.172
		c-10.572,28.958-26.678,55.168-47.865,77.901c-21.188,22.732-46.201,40.639-74.346,53.222
		c-27.178,12.151-56.107,18.845-85.984,19.896c-29.879,1.052-59.208-3.594-87.172-13.805
		C127.207,439.958,100.997,423.854,78.264,402.666z M374.173,85.179C291.98,8.572,162.786,13.116,86.179,95.309
		C9.572,177.503,14.117,306.695,96.31,383.305c82.193,76.605,211.387,72.062,287.994-10.132S456.367,161.786,374.173,85.179z"/>
	<path fill="#FFFFFF" d="M348.06,243.105c-2.781,2.984-6.965,3.606-9.342,1.389l-208.9-194.702c-2.378-2.217-2.051-6.433,0.73-9.417
		l6.297-6.756c2.781-2.985,6.964-3.606,9.343-1.39l208.897,194.702c2.379,2.216,2.053,6.433-0.729,9.418L348.06,243.105z"/>
	<path fill="#FFFFFF" d="M390.025,384.817c-2.781,2.986-6.965,3.607-9.342,1.392L171.784,191.505
		c-2.379-2.217-2.052-6.433,0.729-9.418l6.296-6.756c2.781-2.984,6.964-3.606,9.343-1.39l208.9,194.702
		c2.377,2.217,2.051,6.434-0.73,9.417L390.025,384.817z"/>
	<path fill="#FFFFFF" d="M257.904,353.07c-2.781,2.984-6.965,3.605-9.342,1.39L39.663,159.759c-2.378-2.218-2.052-6.433,0.729-9.418
		l6.297-6.755c2.782-2.984,6.964-3.606,9.343-1.389l208.899,194.702c2.377,2.217,2.051,6.435-0.729,9.418L257.904,353.07z"/>
	<path fill="#FFFFFF" d="M139.11,313.722L18.908,201.688l-6.869,26.418l110.702,103.177c2.378,2.218,6.561,1.596,9.343-1.389
		l6.297-6.757C141.162,320.154,141.489,315.938,139.11,313.722z"/>
</g>
<g opacity="0.1">
</g>
</svg>
