<?xml version="1.0" encoding="utf-8"?>
<!-- Generator: Adobe Illustrator 16.0.0, SVG Export Plug-In . SVG Version: 6.00 Build 0)  -->
<!DOCTYPE svg PUBLIC "-//W3C//DTD SVG 1.1//EN" "http://www.w3.org/Graphics/SVG/1.1/DTD/svg11.dtd">
<svg version="1.1" id="Calque_1" xmlns="http://www.w3.org/2000/svg" xmlns:xlink="http://www.w3.org/1999/xlink" x="0px" y="0px"
	 width="595.281px" height="823.07px" viewBox="0 0 595.281 823.07" enable-background="new 0 0 595.281 823.07"
	 xml:space="preserve">
<g>
	<path fill="#6B1912" d="M160.244,472.022c-22.734-21.188-40.64-46.202-53.223-74.347c-12.15-27.177-18.844-56.107-19.895-85.985
		c-1.052-29.878,3.592-59.208,13.804-87.172c10.574-28.959,26.678-55.168,47.866-77.9c21.188-22.734,46.202-40.641,74.346-53.222
		c27.178-12.15,56.107-18.844,85.986-19.895c29.879-1.051,59.207,3.593,87.17,13.804c28.959,10.574,55.168,26.679,77.902,47.866
		c22.732,21.189,40.641,46.202,53.223,74.346c12.15,27.178,18.844,56.107,19.895,85.984c1.053,29.88-3.594,59.208-13.805,87.172
		c-10.572,28.958-26.678,55.168-47.865,77.901c-21.188,22.732-46.201,40.639-74.346,53.222
		c-27.178,12.151-56.107,18.845-85.984,19.896c-29.879,1.052-59.208-3.594-87.172-13.805
		C209.187,509.314,182.977,493.21,160.244,472.022z M456.154,154.535c-82.193-76.607-211.388-72.063-287.995,10.13
		C91.552,246.86,96.097,376.052,178.29,452.661c82.193,76.605,211.387,72.062,287.995-10.132S538.347,231.142,456.154,154.535z"/>
	<path fill="#6B1912" d="M430.041,312.462c-2.781,2.984-6.965,3.606-9.342,1.389L211.798,119.149
		c-2.378-2.217-2.051-6.433,0.73-9.417l6.297-6.756c2.781-2.985,6.964-3.606,9.343-1.39l208.898,194.702
		c2.379,2.216,2.053,6.433-0.729,9.418L430.041,312.462z"/>
	<path fill="#6B1912" d="M472.005,454.174c-2.781,2.986-6.965,3.607-9.342,1.392L253.764,260.862
		c-2.379-2.217-2.052-6.433,0.729-9.418l6.296-6.756c2.781-2.984,6.964-3.606,9.343-1.39L479.033,438
		c2.377,2.217,2.051,6.434-0.73,9.417L472.005,454.174z"/>
	<path fill="#6B1912" d="M339.884,422.427c-2.781,2.984-6.965,3.605-9.342,1.39L121.643,229.115
		c-2.378-2.218-2.052-6.433,0.729-9.418l6.297-6.755c2.782-2.984,6.964-3.606,9.343-1.389l208.899,194.702
		c2.377,2.217,2.051,6.435-0.729,9.418L339.884,422.427z"/>
	<path fill="#6B1912" d="M221.09,383.078L100.888,271.045l-6.869,26.418L204.721,400.64c2.378,2.218,6.561,1.596,9.343-1.389
		l6.297-6.757C223.142,389.511,223.469,385.294,221.09,383.078z"/>
	<g>
		<path fill="#3A3A3A" d="M527.769,127.267c2.816-3.022,7.549-3.188,10.57-0.373l9.576,8.925c3.021,2.817,3.188,7.549,0.371,10.57
			l-99.443,106.695c-2.814,3.021-7.547,3.188-10.568,0.371l-9.576-8.925c-3.021-2.815-3.189-7.548-0.373-10.57L527.769,127.267z"/>
		<path fill="#3A3A3A" d="M489.55,91.646c2.816-3.022,7.549-3.188,10.57-0.372l9.578,8.926c3.02,2.816,3.188,7.548,0.371,10.569
			l-99.441,106.695c-2.818,3.022-7.551,3.187-10.572,0.371l-9.576-8.925c-3.021-2.816-3.188-7.548-0.371-10.57L489.55,91.646z"/>
		<path fill="#3A3A3A" d="M447.074,52.056c2.816-3.021,7.549-3.188,10.57-0.372l9.576,8.925c3.021,2.816,3.188,7.548,0.373,10.57
			L368.15,177.872c-2.816,3.022-7.549,3.188-10.57,0.373l-9.576-8.925c-3.02-2.817-3.188-7.549-0.371-10.57L447.074,52.056z"/>
		<path fill="#3A3A3A" d="M457.912,40.429c2.816-3.021,7.908-2.854,11.371,0.375l88.668,82.642
			c3.465,3.228,3.988,8.295,1.174,11.317l-11.475,12.312c-2.818,3.022-7.908,2.854-11.373-0.375l-88.668-82.642
			c-3.463-3.229-3.988-8.295-1.172-11.317L457.912,40.429z"/>
		<path fill="#3A3A3A" d="M567.363,8.161c2.814-3.022,7.547-3.188,10.568-0.372l9.576,8.925c3.021,2.816,3.189,7.548,0.373,10.57
			l-99.443,106.694c-2.816,3.022-7.549,3.188-10.57,0.372l-9.576-8.925c-3.021-2.816-3.188-7.548-0.371-10.569L567.363,8.161z"/>
	</g>
</g>
<g>
	<path fill="#3A3A3A" d="M201.777,671.087c-5.864-5.117-8.795-12.353-8.795-21.701v-61.433c0-9.349,2.931-16.58,8.795-21.701
		c5.862-5.117,14.318-7.679,25.363-7.679c11.044,0,19.497,2.562,25.361,7.679c5.862,5.121,8.796,12.354,8.796,21.701v61.433
		c0,9.35-2.934,16.584-8.796,21.701c-5.864,5.121-14.317,7.68-25.361,7.68C216.095,678.767,207.639,676.208,201.777,671.087z
		 M238.798,650.554v-63.769c0-7.679-3.886-11.52-11.658-11.52c-7.773,0-11.659,3.841-11.659,11.52v63.769
		c0,7.682,3.886,11.52,11.659,11.52C234.912,662.072,238.798,658.234,238.798,650.554z"/>
	<path fill="#3A3A3A" d="M276.431,560.241h28.227l21.885,69.947h0.41v-69.947h20.045v116.854h-23.113l-26.998-85.304h-0.409v85.304
		h-20.045L276.431,560.241L276.431,560.241z"/>
	<path fill="#3A3A3A" d="M370.822,671.253c-5.66-5.006-8.49-12.073-8.49-21.2v-62.767c0-9.124,2.83-16.192,8.49-21.201
		c5.654-5.009,13.873-7.512,24.646-7.512c10.77,0,18.984,2.503,24.646,7.512c5.654,5.009,8.486,12.077,8.486,21.201v12.354h-21.27
		v-13.521c0-7.233-3.754-10.853-11.25-10.853c-7.5,0-11.248,3.618-11.248,10.853v65.271c0,7.123,3.748,10.685,11.248,10.685
		c7.496,0,11.25-3.562,11.25-10.685v-17.86h21.27v16.524c0,9.127-2.832,16.194-8.486,21.2c-5.66,5.009-13.877,7.514-24.646,7.514
		C384.695,678.767,376.476,676.262,370.822,671.253z"/>
	<path fill="#3A3A3A" d="M442.101,560.241h22.498v100.163h37.021v16.691h-59.52V560.241z"/>
	<path fill="#3A3A3A" d="M512.458,560.241h61.361v16.695h-38.861v30.884h30.885v16.69h-30.885v35.894h38.861v16.691h-61.361V560.241
		z"/>
</g>
<g>
	<g>
		<path fill="#6B1912" d="M145.701,807.449c-5.594-5.063-8.387-12.323-8.387-21.785v-6.677h21.271V787
			c0,7.569,3.886,11.353,11.658,11.353c3.816,0,6.714-0.92,8.694-2.755c1.974-1.837,2.965-4.813,2.965-8.932
			c0-4.896-1.365-9.207-4.091-12.937c-2.729-3.729-7.773-8.205-15.135-13.438c-9.275-6.678-15.749-12.714-19.43-18.112
			c-3.682-5.396-5.522-11.49-5.522-18.278c0-9.235,2.864-16.387,8.591-21.452c5.727-5.063,14.042-7.596,24.952-7.596
			c10.771,0,18.92,2.532,24.442,7.596c5.522,5.065,8.285,12.327,8.285,21.785v4.842h-21.272v-6.01c0-4.008-0.956-6.93-2.864-8.765
			c-1.91-1.837-4.704-2.755-8.386-2.755c-7.5,0-11.249,3.73-11.249,11.186c0,4.23,1.397,8.18,4.193,11.853
			c2.793,3.672,7.874,8.125,15.237,13.354c9.409,6.678,15.884,12.743,19.432,18.195c3.543,5.454,5.318,11.854,5.318,19.197
			c0,9.573-2.9,16.918-8.694,22.035c-5.796,5.121-14.215,7.68-25.26,7.68C159.538,815.046,151.29,812.516,145.701,807.449z"/>
		<path fill="#6B1912" d="M234.06,696.521h30.476l23.317,116.854h-22.499l-4.091-23.203v0.333h-25.566l-4.091,22.87h-20.862
			L234.06,696.521z M258.604,774.647l-10.022-57.761h-0.41l-9.817,57.761H258.604z"/>
		<path fill="#6B1912" d="M298.689,696.521H330.8l14.318,83.636h0.408l14.316-83.636h32.111v116.854h-21.271V724.9h-0.408
			l-16.363,88.476h-18.816L318.734,724.9h-0.408v88.476h-19.637V696.521L298.689,696.521z"/>
		<path fill="#6B1912" d="M408.728,696.521h32.111l14.318,83.636h0.408l14.316-83.636h32.113v116.854h-21.271V724.9h-0.408
			l-16.363,88.476h-18.818L428.773,724.9h-0.41v88.476h-19.637V696.521H408.728z"/>
		<path fill="#6B1912" d="M539.425,763.629l-27.203-67.106h23.932l15.34,42.9h0.408l15.342-42.9h21.885l-27.203,67.106v49.747h-22.5
			V763.629L539.425,763.629z"/>
	</g>
</g>
<path fill="#FFC639" d="M177.974,609.936c-27.295,6.714-76.704,7.816-107.025-53.641C48.99,522.74,17.61,520.499,17.61,520.499
	c34.885-20.848,65.766,8.228,72.539,1.021c5.243-5.572-1.133-13.471-28.332-22.158c-44.317-14.157-37.179-73.184-37.607-70.05
	c15.87,40.268,58.179,58.817,64.444,40.729c4.535-20.285-84.048-39.392-64.146-118.116c6.473-25.613-21.403-57.708-21.403-57.708
	c1.042,2.707,42.689,20.202,51.083,56.152c7.516,32.176,4.278,47.498,27.216,54.916c20.304,6.567,24.334-7.835,13.913-26.038
	c-10.419-18.202-23.523-22.599-23.523-22.599s15.332-7.318,39.249,5.292c23.915,12.607,19.223,29.537,32.225,41.155
	c13,11.618,20.82,10.634,20.054-0.272c-0.762-10.905-20.955-25.793,1.995-45.146c2.158-1.818-9.891,19.06,12.401,34.022
	c22.292,14.958,31.744,19.455,37.587,39.31c5.842,19.856-0.477,25.167,5.126,28.151c7.841,4.181,18.384-0.299,11.633-12.517
	c-17.271-31.251-1.816-49.251-0.699-49.887c1.12-0.636-9.107,8.276,14.143,29.272c23.251,20.994,40.54,72.316,27.502,109.294
	c-1.936,5.484-4.965,10.828-8.713,15.953c-0.095-1.123-0.229-2.242-0.398-3.354c-1.598-10.507-5.452-20.741-9.718-30.521
	c3.245,15.125,1.774,21.136,0.102,26.2c-2.621,7.946-22.206,3.099-22.02-5.199c0.835-37.204-24.122-51.825-29.359-55.742
	c10.165,21.678,7.882,27.093,3.056,28.332c-16.862,4.334-23.851-26.552-38.705-36.129c14.684,22.604,2.336,28.65-0.621,30.543
	c-3.342,2.137-35.326-4.054-47.599-44.066c2.878,53.691,56.068,63.567,51.981,78.498c-2.841,10.361-29.492,5.824-36.258,4.146
	c26.663,13.997,39.772,31.7,34.092,34.697c-7.634,4.03-8.7-2.876-31.737-4.373c9.212,5.962,17.14,13.092,24.383,21.427
	C166.398,601.378,171.36,606.479,177.974,609.936z"/>
</svg>
