<?xml version="1.0" encoding="utf-8"?>
<!-- Generator: Adobe Illustrator 16.0.0, SVG Export Plug-In . SVG Version: 6.00 Build 0)  -->
<!DOCTYPE svg PUBLIC "-//W3C//DTD SVG 1.1//EN" "http://www.w3.org/Graphics/SVG/1.1/DTD/svg11.dtd">
<svg version="1.1" id="Calque_1" xmlns="http://www.w3.org/2000/svg" xmlns:xlink="http://www.w3.org/1999/xlink" x="0px" y="0px"
	 width="361.481px" height="419.979px" viewBox="0 0 361.481 419.979" enable-background="new 0 0 361.481 419.979"
	 xml:space="preserve">
<path fill="#E2CBBD" d="M125.938,138.185c-11.708,6.332-25.372,6.674-37.492,11.764c-15.038,6.315-34.294,18.653-46.537,29.582
	c-21.459,19.156-25.281,46.35-29.999,73.38c-5.212,29.859-7.486,57.264,3.052,86.303c8.538,23.529,32.009,34.866,53.185,46.341
	c48.837,26.458,104.052,34.979,154.412,7.903c32.344-17.392,51.996-51.906,55.456-87.902c3.173-33.014-2.777-52.733-31.512-71.643
	c-18.075-11.894-40.029-18.275-54.313-35.152c-10.818-12.78-15.488-28.218-27.054-40.4
	C152.977,145.551,136.594,141.302,125.938,138.185"/>
<g>
	<g>
		<path fill="#727172" d="M83.177,347.388c-2.602,6.095-9.653,8.927-15.748,6.323l-0.262-0.111
			c-6.096-2.602-8.926-9.654-6.324-15.748l42.183-98.802c2.602-6.095,9.652-8.927,15.748-6.324l0.263,0.112
			c6.095,2.602,8.926,9.653,6.324,15.748L83.177,347.388z"/>
		<path fill="#727172" d="M82.436,226.133c-4.119-1.759-6.03-6.522-4.273-10.64l0.076-0.178c1.758-4.119,6.521-6.031,10.64-4.272
			l66.755,28.5c4.119,1.759,6.032,6.521,4.273,10.64l-0.076,0.178c-1.758,4.118-6.521,6.031-10.641,4.273L82.436,226.133z"/>
		<path fill="#727172" d="M106.665,148.737c1.758-4.119,6.521-6.032,10.64-4.274l0.177,0.076c4.119,1.758,6.032,6.521,4.273,10.64
			l-28.5,66.755c-1.759,4.119-6.522,6.033-10.641,4.274l-0.177-0.075c-4.119-1.759-6.03-6.522-4.272-10.642L106.665,148.737z"/>
		<path fill="#727172" d="M143.175,155.404c1.758-4.119,6.521-6.032,10.64-4.273l0.177,0.075c4.119,1.759,6.032,6.522,4.273,10.641
			l-28.5,66.753c-1.758,4.119-6.522,6.033-10.641,4.274l-0.177-0.076c-4.119-1.758-6.03-6.523-4.271-10.642L143.175,155.404z"/>
		<path fill="#727172" d="M173.243,177.163c1.759-4.119,6.521-6.033,10.64-4.274l0.177,0.075c4.119,1.759,6.032,6.522,4.273,10.641
			l-28.5,66.754c-1.759,4.12-6.522,6.033-10.642,4.275l-0.177-0.076c-4.119-1.758-6.031-6.523-4.272-10.642L173.243,177.163z"/>
	</g>
	<g>
		<path fill="#991B1F" stroke="#FFFFFF" stroke-width="14" stroke-miterlimit="10" d="M147.917,26.628
			c-13.457,31.52-39.277,69.959-34.213,104.618c5.133,35.132,39.766,62.4,69.936,75.287c22.878,9.772,41.963,14.819,65.029,1.788
			c12.509-7.067,27.835-19.155,34.492-31.959c12.859-24.735-18.008-54.236-36.058-70.148
			c-17.469-15.398-46.231-30.725-47.307-54.674c-0.569-12.693,5.097-19.066-5.35-28.381c-7.228-6.444-24.65-18.488-32.728-13.667
			C157.395,14.943,148.995,21.198,147.917,26.628"/>
		<path fill="#FFFFFF" d="M227.754,137.604c-8.602-3.641-19.343-9.34-28.88-6.129c-11.221,3.778-8.061,14.348-14.275,21.438
			c-4.664,5.322-18.983,9.172-14.415,19.968c2.627,6.204,22.977,12.862,28.947,13.996c9.307,1.769,12.965-2.672,21.353-4.854
			c9.056-2.354,13.005,3.012,20.236-5.966c10.214-12.68-2.603-26.252-9.681-35.963"/>
	</g>
</g>
<g>
	<path fill="#991B1F" d="M136.276,301.94l26.684,2.343l-0.944,10.756l-26.684-2.343L136.276,301.94z"/>
	<path fill="#991B1F" d="M171.58,344.604c-3.073-3.521-4.344-8.295-3.815-14.318l0.539-6.132l12.614,1.107l-0.585,6.67
		c-0.435,4.947,1.652,7.623,6.262,8.028c2.263,0.198,4.037-0.276,5.32-1.43c1.281-1.15,2.063-3.304,2.339-6.461l0.538-6.131
		c0.302-3.442-0.17-5.959-1.415-7.55c-1.247-1.59-3.405-2.521-6.478-2.79l-4.487-0.394l0.944-10.758l4.852,0.426
		c2.668,0.234,4.723-0.197,6.164-1.301c1.441-1.103,2.289-3.088,2.541-5.956l0.481-5.486c0.227-2.582-0.213-4.533-1.319-5.859
		s-2.67-2.078-4.691-2.255c-4.287-0.377-6.633,1.767-7.042,6.427l-0.435,4.948l-12.614-1.107l0.35-3.98
		c0.529-6.023,2.612-10.502,6.251-13.435c3.638-2.932,8.612-4.121,14.919-3.567c6.387,0.561,11.098,2.584,14.135,6.064
		c3.034,3.483,4.288,8.236,3.759,14.26l-0.236,2.688c-0.359,4.088-1.416,7.301-3.168,9.64c-1.754,2.34-4.296,3.905-7.624,4.697
		l-0.019,0.215c3.375,1.453,5.719,3.537,7.029,6.254c1.308,2.715,1.788,6.082,1.436,10.098l-0.585,6.67
		c-0.529,6.023-2.613,10.485-6.247,13.38c-3.636,2.896-8.729,4.058-15.278,3.482S174.651,348.125,171.58,344.604z"/>
	<path fill="#991B1F" d="M220.287,348.771c-3.188-3.602-4.517-8.418-3.988-14.441l3.476-39.584
		c0.528-6.025,2.676-10.532,6.442-13.526c3.766-2.992,8.925-4.202,15.475-3.628c6.551,0.575,11.417,2.666,14.605,6.269
		c3.187,3.604,4.517,8.417,3.988,14.441l-3.476,39.585c-0.528,6.023-2.678,10.534-6.442,13.525
		c-3.768,2.995-8.925,4.203-15.475,3.628C228.343,354.465,223.473,352.376,220.287,348.771z M243.402,337.468l3.607-41.091
		c0.435-4.948-1.653-7.624-6.263-8.029c-4.608-0.404-7.131,1.867-7.564,6.815l-3.607,41.091c-0.435,4.947,1.652,7.623,6.262,8.027
		C240.446,344.687,242.968,342.416,243.402,337.468z"/>
	<path fill="#991B1F" d="M289.38,321.884c-2.001-2.271-2.831-5.344-2.491-9.215l1.652-18.824c0.34-3.873,1.693-6.752,4.06-8.641
		c2.365-1.888,5.649-2.647,9.855-2.278c4.203,0.369,7.308,1.689,9.308,3.96c2.001,2.273,2.831,5.344,2.491,9.217l-1.652,18.824
		c-0.34,3.871-1.693,6.753-4.06,8.639c-2.365,1.89-5.651,2.648-9.854,2.279C294.482,325.476,291.38,324.157,289.38,321.884z
		 M333.169,286.706l8.491,0.746l-39.48,72.411l-8.49-0.745L333.169,286.706z M304.065,314.718l1.747-19.899
		c0.276-3.155-1.041-4.86-3.951-5.116c-2.912-0.256-4.506,1.194-4.782,4.35l-1.747,19.899c-0.277,3.156,1.039,4.861,3.951,5.117
		C302.193,319.325,303.788,317.875,304.065,314.718z M323.585,359.682c-2.002-2.27-2.831-5.343-2.491-9.214l1.652-18.826
		c0.34-3.871,1.692-6.75,4.06-8.64c2.365-1.888,5.649-2.648,9.854-2.279c4.204,0.369,7.309,1.69,9.309,3.962
		c2.001,2.272,2.831,5.343,2.491,9.215l-1.652,18.825c-0.34,3.871-1.693,6.753-4.06,8.64c-2.365,1.887-5.651,2.647-9.855,2.278
		C328.688,363.274,325.585,361.953,323.585,359.682z M338.271,352.516l1.746-19.898c0.277-3.155-1.039-4.862-3.951-5.118
		c-2.91-0.255-4.505,1.196-4.782,4.352l-1.746,19.898c-0.277,3.157,1.04,4.862,3.95,5.117
		C336.399,357.123,337.993,355.673,338.271,352.516z"/>
</g>
</svg>
